# 3ds Max Wavefront OBJ Exporter v0.99 - (c)2007 guruware
# File Created: 26.07.2021 18:51:41

mtllib Female_Skeletal_Pubis.mtl

#
# object Female_Skeletal_Pubis
#

v  -20.034525 0.668298 9.276954
v  -20.033831 0.647150 9.362403
v  -20.013182 0.743201 9.376465
v  -20.014576 0.763361 9.314649
v  -20.053740 0.656580 9.160743
v  -20.054321 0.611359 9.259473
v  -20.037733 0.704755 9.180664
v  -20.016676 0.786005 9.213086
v  -20.045073 0.793518 9.013476
v  -20.041559 0.745783 9.074512
v  -19.979954 0.811768 9.101367
v  -19.978748 0.830994 9.049903
v  -19.973440 0.857831 8.910449
v  -19.977444 0.850311 8.998633
v  -20.053181 0.707349 9.051953
v  -20.057489 0.771582 8.984863
v  -20.070971 0.748010 8.954102
v  -19.965567 0.668298 9.276954
v  -19.966314 0.647144 9.362403
v  -19.949041 0.594025 9.345118
v  -19.945772 0.611353 9.259473
v  -19.962299 0.704755 9.180664
v  -19.946289 0.656573 9.160743
v  -19.958401 0.745783 9.074512
v  -19.954847 0.793518 9.013575
v  -19.942410 0.771570 8.984863
v  -19.946774 0.707343 9.051953
v  -19.928915 0.747998 8.954200
v  -19.974361 0.745795 8.949707
v  -19.934189 0.666003 9.027735
v  -19.974525 0.655749 9.019336
v  -19.924356 0.550104 9.240821
v  -19.978952 0.535803 9.233594
v  -19.976938 0.592377 9.131640
v  -19.928968 0.604748 9.139551
v  -19.981802 0.526276 9.321289
v  -20.069832 0.536914 9.326563
v  -20.075741 0.550116 9.240821
v  -20.013777 0.570764 9.445899
v  -19.952627 0.573828 9.447754
v  -19.967007 0.622388 9.464844
v  -20.012510 0.622266 9.463965
v  -20.033197 0.622388 9.464844
v  -20.011642 0.719409 9.450391
v  -20.051104 0.594037 9.345118
v  -20.047575 0.573834 9.447754
v  -20.071058 0.604755 9.139551
v  -20.065762 0.666010 9.027637
v  -19.930315 0.536902 9.326563
v  -19.937019 0.521606 9.429395
v  -20.015196 0.515378 9.426661
v  -20.063189 0.521619 9.429297
# 52 vertices

vn -0.966574 0.238290 0.094622
vn -0.967453 0.244141 0.066559
vn -0.117692 0.943893 0.308568
vn -0.126077 0.955333 0.267290
vn -0.955613 0.269398 0.119282
vn -0.948421 0.296459 0.112290
vn -0.964209 0.234763 0.123233
vn -0.232124 0.956523 0.176584
vn -0.788945 0.580277 0.202101
vn -0.891888 0.375876 0.251502
vn 0.297392 0.892461 0.339222
vn 0.243948 0.906134 0.345560
vn 0.167977 0.689782 -0.704262
vn 1.000000 0.000000 0.000000
vn -0.966723 0.198541 0.161330
vn -0.694162 -0.392279 0.603536
vn -0.805777 -0.109615 -0.581987
vn 0.927841 0.349775 0.129491
vn 0.930108 0.355063 0.093963
vn 0.955020 0.282166 0.091210
vn 0.948429 0.296236 0.112816
vn 0.910076 0.375334 0.175744
vn 0.955601 0.269195 0.119836
vn 0.961602 0.218092 0.166606
vn 0.920441 0.343237 0.187019
vn 0.468611 -0.590182 0.657335
vn 0.966637 0.198405 0.162014
vn 0.826762 -0.200543 -0.525592
vn 0.023215 0.201382 -0.979238
vn 0.842305 -0.421703 -0.335690
vn 0.085623 -0.754566 -0.650614
vn 0.859842 -0.488482 -0.148514
vn 0.059098 -0.950571 -0.304830
vn 0.070752 -0.871079 -0.486021
vn 0.881877 -0.395990 -0.255900
vn 0.055981 -0.994007 -0.093899
vn -0.837165 -0.546303 -0.026608
vn -0.828322 -0.534913 -0.166587
vn 0.004839 -0.329598 0.944109
vn 0.678386 -0.055936 0.732573
vn 0.618294 0.113087 0.777768
vn 0.005982 -0.768451 0.639881
vn -0.604489 0.053420 0.794821
vn -0.093032 0.795435 0.598856
vn -0.955007 0.282374 0.090697
vn -0.675242 -0.058561 0.735268
vn -0.846253 -0.450543 -0.284369
vn -0.790090 -0.478950 -0.382577
vn 0.860131 -0.509719 -0.018998
vn 0.668662 -0.585937 0.457787
vn -0.031540 -0.865527 0.499867
vn -0.678153 -0.569099 0.465011
# 52 vertex normals

vt 0.104500 0.770590 0.000000
vt 0.103930 0.774860 0.000000
vt 0.098980 0.773580 0.000000
vt 0.099250 0.770140 0.000000
vt 0.107860 0.766120 0.000000
vt 0.107360 0.771030 0.000000
vt 0.105310 0.765610 0.000000
vt 0.100770 0.764710 0.000000
vt 0.107580 0.756410 0.000000
vt 0.106960 0.760200 0.000000
vt 0.103350 0.758960 0.000000
vt 0.104670 0.756200 0.000000
vt 0.110080 0.750630 0.000000
vt 0.106270 0.753610 0.000000
vt 0.109140 0.760670 0.000000
vt 0.109480 0.756380 0.000000
vt 0.111410 0.756450 0.000000
vt 0.119740 0.771890 0.000000
vt 0.119340 0.776020 0.000000
vt 0.116760 0.775510 0.000000
vt 0.116930 0.771740 0.000000
vt 0.124910 0.772680 0.000000
vt 0.124320 0.776170 0.000000
vt 0.119910 0.766940 0.000000
vt 0.117330 0.766930 0.000000
vt 0.124530 0.767000 0.000000
vt 0.123100 0.760910 0.000000
vt 0.119310 0.761280 0.000000
vt 0.119460 0.757350 0.000000
vt 0.122410 0.758040 0.000000
vt 0.121830 0.755320 0.000000
vt 0.119910 0.751220 0.000000
vt 0.117540 0.756590 0.000000
vt 0.117070 0.761240 0.000000
vt 0.115360 0.755750 0.000000
vt 0.113250 0.756090 0.000000
vt 0.114780 0.761320 0.000000
vt 0.113090 0.761270 0.000000
vt 0.114230 0.771670 0.000000
vt 0.112220 0.771520 0.000000
vt 0.112610 0.766850 0.000000
vt 0.114660 0.767020 0.000000
vt 0.111990 0.775050 0.000000
vt 0.109710 0.774980 0.000000
vt 0.110110 0.771410 0.000000
vt 0.115330 0.781250 0.000000
vt 0.115900 0.779890 0.000000
vt 0.118080 0.780680 0.000000
vt 0.118120 0.781630 0.000000
vt 0.118160 0.782610 0.000000
vt 0.123110 0.780170 0.000000
vt 0.106780 0.775010 0.000000
vt 0.115070 0.782800 0.000000
vt 0.110490 0.766680 0.000000
vt 0.111360 0.761130 0.000000
vt 0.114120 0.775060 0.000000
vt 0.103590 0.780090 0.000000
vt 0.098850 0.777600 0.000000
vt 0.113980 0.779030 0.000000
vt 0.112320 0.779970 0.000000
vt 0.109660 0.779930 0.000000
vt 0.106460 0.780110 0.000000
vt 0.112010 0.782400 0.000000
# 63 texture coords

o Female_Skeletal_Pubis
g Female_Skeletal_Pubis
usemtl PhysicalMaterial
s 153
f 1/1/1 2/2/2 3/3/3 4/4/4 
f 5/5/5 6/6/6 1/1/1 7/7/7 
f 8/8/8 7/7/7 1/1/1 4/4/4 
f 9/9/9 10/10/10 11/11/11 12/12/12 
f 13/13/13 9/9/9 12/12/12 14/14/14 
f 15/15/15 10/10/10 9/9/9 16/16/16 
f 13/13/13 17/17/17 16/16/16 9/9/9 
f 18/18/18 19/19/19 20/20/20 21/21/21 
f 4/22/4 3/23/3 19/19/19 18/18/18 
f 22/24/22 18/18/18 21/21/21 23/25/23 
f 8/26/8 4/22/4 18/18/18 22/24/22 
f 11/27/11 24/28/24 25/29/25 12/30/12 
f 14/31/14 12/30/12 25/29/25 13/32/13 
f 26/33/26 25/29/25 24/28/24 27/34/27 
f 25/29/25 26/33/26 28/35/28 13/32/13 
f 29/36/29 17/17/17 13/13/13 28/35/28 
f 30/37/30 31/38/31 29/36/29 28/35/28 
f 32/39/32 33/40/33 34/41/34 35/42/35 
f 33/40/33 36/43/36 37/44/37 38/45/38 
f 39/46/39 40/47/40 41/48/41 42/49/42 
f 43/50/43 42/49/42 41/48/41 44/51/44 
f 45/52/45 2/2/2 1/1/1 6/6/6 
f 46/53/46 39/46/39 42/49/42 43/50/43 
f 33/40/33 38/45/38 47/54/47 34/41/34 
f 29/36/29 31/38/31 48/55/48 17/17/17 
f 49/56/49 36/43/36 33/40/33 32/39/32 
f 15/15/15 5/5/5 7/7/7 10/10/10 
f 34/41/34 47/54/47 48/55/48 31/38/31 
f 35/42/35 34/41/34 31/38/31 30/37/30 
f 24/28/24 22/24/22 23/25/23 27/34/27 
f 11/27/11 8/26/8 22/24/22 24/28/24 
f 10/10/10 7/7/7 8/8/8 11/11/11 
f 2/2/2 43/57/43 44/58/44 3/3/3 
f 19/19/19 3/23/3 44/51/44 41/48/41 
f 20/20/20 19/19/19 41/48/41 40/47/40 
f 50/59/50 51/60/51 36/43/36 49/56/49 
f 37/44/37 36/43/36 51/60/51 52/61/52 
f 46/62/46 43/57/43 2/2/2 45/52/45 
f 48/55/48 15/15/15 16/16/16 17/17/17 
f 48/55/48 47/54/47 5/5/5 15/15/15 
f 47/54/47 38/45/38 6/6/6 5/5/5 
f 37/44/37 45/52/45 6/6/6 38/45/38 
f 52/61/52 46/62/46 45/52/45 37/44/37 
f 52/63/52 51/60/51 39/46/39 46/53/46 
f 51/60/51 50/59/50 40/47/40 39/46/39 
f 49/56/49 20/20/20 40/47/40 50/59/50 
f 21/21/21 20/20/20 49/56/49 32/39/32 
f 23/25/23 21/21/21 32/39/32 35/42/35 
f 27/34/27 23/25/23 35/42/35 30/37/30 
f 28/35/28 26/33/26 27/34/27 30/37/30 
# 50 polygons

