# 3ds Max Wavefront OBJ Exporter v0.99 - (c)2007 guruware
# File Created: 26.07.2021 18:51:11

mtllib Female_Body_Eyelashes.mtl

#
# object Female_Body_Eyelashes
#

v  -20.473951 0.079469 16.669331
v  -20.499546 0.049396 16.667156
v  -20.506905 0.057415 16.664423
v  -20.480633 0.087488 16.666655
v  -20.467630 0.070597 16.673681
v  -20.492569 0.040524 16.671560
v  -20.460913 0.061478 16.678366
v  -20.485151 0.031404 16.676306
v  -20.452009 0.051983 16.683538
v  -20.475334 0.021910 16.681557
v  -20.442068 0.042487 16.688898
v  -20.464375 0.012414 16.687004
v  -20.429190 0.033400 16.694307
v  -20.450186 0.003327 16.692526
v  -20.415398 0.024588 16.699696
v  -20.434996 -0.005485 16.698030
v  -20.399054 0.017016 16.704496
v  -20.417007 -0.013058 16.702971
v  -20.381918 0.009994 16.708961
v  -20.398155 -0.020079 16.707582
v  -20.362925 0.005110 16.712280
v  -20.377270 -0.024963 16.711063
v  -20.343470 0.001099 16.715038
v  -20.355883 -0.028974 16.713984
v  -20.323147 0.000191 16.716063
v  -20.333559 -0.029882 16.715178
v  -20.302700 0.000479 16.716394
v  -20.311106 -0.029595 16.715681
v  -20.282682 0.003492 16.714582
v  -20.289137 -0.026581 16.714033
v  -20.263063 0.007129 16.711933
v  -20.267616 -0.022944 16.711546
v  -20.245474 0.011774 16.707005
v  -20.248343 -0.018299 16.706760
v  -20.228819 0.016470 16.701193
v  -20.230101 -0.013604 16.701082
v  -20.215128 0.020152 16.694023
v  -20.215128 -0.009922 16.694023
v  -20.448355 0.127771 16.671505
v  -20.454361 0.135791 16.668886
v  -20.442694 0.118900 16.675798
v  -20.436672 0.109780 16.680426
v  -20.428686 0.100286 16.685520
v  -20.419765 0.090789 16.690794
v  -20.408194 0.081703 16.696091
v  -20.395800 0.072891 16.701361
v  -20.381098 0.065318 16.706022
v  -20.365681 0.058296 16.710340
v  -20.348577 0.053412 16.713499
v  -20.331053 0.049401 16.716093
v  -20.312735 0.048493 16.716946
v  -20.294296 0.048781 16.717108
v  -20.276226 0.051795 16.715130
v  -20.258511 0.055431 16.712318
v  -20.242605 0.060077 16.707247
v  -20.227535 0.064772 16.701300
v  -20.215128 0.068454 16.694023
v  -20.454887 0.091563 16.656515
v  -20.436031 0.120034 16.656301
v  -20.439123 0.123075 16.664217
v  -20.458357 0.094604 16.664476
v  -20.448927 0.085554 16.648962
v  -20.430647 0.114025 16.648916
v  -20.442038 0.078730 16.641705
v  -20.424431 0.107202 16.641638
v  -20.432201 0.070408 16.635004
v  -20.415504 0.098880 16.635044
v  -20.421318 0.061901 16.628481
v  -20.405607 0.090373 16.628738
v  -20.407040 0.053782 16.622967
v  -20.392616 0.082253 16.623276
v  -20.391573 0.046106 16.617716
v  -20.378515 0.074577 16.618286
v  -20.373037 0.040478 16.614117
v  -20.361614 0.068949 16.614779
v  -20.353672 0.035773 16.611122
v  -20.343935 0.064244 16.611986
v  -20.332325 0.034552 16.610714
v  -20.324419 0.063023 16.611794
v  -20.310507 0.034732 16.611258
v  -20.304449 0.063203 16.612656
v  -20.287912 0.038073 16.614527
v  -20.283766 0.066544 16.616051
v  -20.265303 0.042121 16.618401
v  -20.263044 0.070592 16.620247
v  -20.240982 0.048032 16.624992
v  -20.240747 0.076503 16.626978
v  -20.473755 0.063092 16.656630
v  -20.477600 0.066133 16.664637
v  -20.467199 0.057082 16.649107
v  -20.459658 0.050259 16.641672
v  -20.448912 0.041937 16.634863
v  -20.437019 0.033430 16.628323
v  -20.421474 0.025311 16.622557
v  -20.404619 0.017635 16.617243
v  -20.384474 0.012007 16.613352
v  -20.363420 0.007301 16.610159
v  -20.340242 0.006081 16.609533
v  -20.316549 0.006261 16.609957
v  -20.292067 0.009602 16.612904
v  -20.267553 0.013650 16.616652
v  -20.241228 0.019561 16.622908
v  -19.544878 0.091563 16.655579
v  -19.541332 0.094604 16.663506
v  -19.560568 0.123075 16.663439
v  -19.563736 0.120034 16.655552
v  -19.550913 0.085554 16.648087
v  -19.569195 0.114025 16.648222
v  -19.557875 0.078730 16.640898
v  -19.575481 0.107202 16.641005
v  -19.567778 0.070408 16.634295
v  -19.584473 0.098880 16.634501
v  -19.578726 0.061901 16.627880
v  -19.594435 0.090373 16.628294
v  -19.593058 0.053782 16.622507
v  -19.607477 0.082253 16.622961
v  -19.608576 0.046106 16.617411
v  -19.621626 0.074577 16.618111
v  -19.627146 0.040478 16.613995
v  -19.638563 0.068949 16.614771
v  -19.646540 0.035773 16.611193
v  -19.656267 0.064244 16.612154
v  -19.667891 0.034552 16.610996
v  -19.675785 0.063023 16.612156
v  -19.689703 0.034732 16.611757
v  -19.695745 0.063203 16.613216
v  -19.712263 0.038073 16.615250
v  -19.716391 0.066544 16.616817
v  -19.734831 0.042121 16.619349
v  -19.737074 0.070592 16.621218
v  -19.759087 0.048032 16.626181
v  -19.759300 0.076503 16.628170
v  -19.526011 0.063092 16.655508
v  -19.522085 0.066133 16.663475
v  -19.532642 0.057082 16.648052
v  -19.540257 0.050259 16.640690
v  -19.551069 0.041937 16.633987
v  -19.563025 0.033430 16.627565
v  -19.578627 0.025311 16.621956
v  -19.595533 0.017635 16.616808
v  -19.615719 0.012007 16.613117
v  -19.636801 0.007301 16.610134
v  -19.659985 0.006081 16.609739
v  -19.683672 0.006261 16.610395
v  -19.708122 0.009602 16.613586
v  -19.732599 0.013650 16.617579
v  -19.758862 0.019561 16.624092
v  -19.525274 0.079469 16.675402
v  -19.518507 0.087488 16.672945
v  -19.492176 0.057415 16.671568
v  -19.499620 0.049396 16.674061
v  -19.531731 0.070597 16.679543
v  -19.506735 0.040524 16.678236
v  -19.538597 0.061478 16.684008
v  -19.514303 0.031404 16.682737
v  -19.547663 0.051983 16.688889
v  -19.524288 0.021910 16.687666
v  -19.557774 0.042487 16.693922
v  -19.535419 0.012414 16.692755
v  -19.570822 0.033400 16.698912
v  -19.549780 0.003327 16.697811
v  -19.584782 0.024588 16.703848
v  -19.565140 -0.005485 16.702820
v  -19.601273 0.017016 16.708115
v  -19.583281 -0.013058 16.707174
v  -19.618544 0.009994 16.712021
v  -19.602270 -0.020079 16.711170
v  -19.637636 0.005110 16.714722
v  -19.623259 -0.024963 16.713970
v  -19.657171 0.001099 16.716845
v  -19.644728 -0.028974 16.716194
v  -19.677515 0.000191 16.717207
v  -19.667080 -0.029882 16.716661
v  -19.697962 0.000479 16.716875
v  -19.689539 -0.029595 16.716434
v  -19.717911 0.003492 16.714413
v  -19.711441 -0.026581 16.714073
v  -19.737432 0.007129 16.711126
v  -19.732870 -0.022944 16.710890
v  -19.754852 0.011774 16.705629
v  -19.751978 -0.018299 16.705481
v  -19.771311 0.016470 16.699280
v  -19.770025 -0.013604 16.699213
v  -19.784761 0.020152 16.691671
v  -19.784761 -0.009922 16.691671
v  -19.550924 0.127771 16.676743
v  -19.544838 0.135791 16.674322
v  -19.556725 0.118900 16.680851
v  -19.562893 0.109780 16.685278
v  -19.571039 0.100286 16.690111
v  -19.580128 0.090789 16.695091
v  -19.591866 0.081703 16.700010
v  -19.604424 0.072891 16.704874
v  -19.619268 0.065318 16.709055
v  -19.634817 0.058296 16.712873
v  -19.652014 0.053412 16.715473
v  -19.669615 0.049401 16.717495
v  -19.687952 0.048493 16.717752
v  -19.706385 0.048781 16.717314
v  -19.724380 0.051795 16.714750
v  -19.741995 0.055431 16.711367
v  -19.757727 0.060077 16.705780
v  -19.772596 0.064772 16.699347
v  -19.784761 0.068454 16.691671
# 204 vertices

vn 0.311168 -0.153657 -0.937851
vn 0.278067 -0.168280 -0.945706
vn 0.223953 -0.123889 -0.966694
vn 0.250011 -0.112438 -0.961692
vn 0.367713 -0.190739 -0.910168
vn 0.327947 -0.206999 -0.921738
vn 0.360057 -0.182272 -0.914951
vn 0.323497 -0.197404 -0.925409
vn 0.347416 -0.166626 -0.922788
vn 0.313595 -0.181835 -0.931984
vn 0.322780 -0.145621 -0.935205
vn 0.295275 -0.159685 -0.941973
vn 0.299945 -0.123015 -0.945992
vn 0.275118 -0.135665 -0.951791
vn 0.269234 -0.099082 -0.957964
vn 0.251899 -0.110941 -0.961374
vn 0.235457 -0.073690 -0.969087
vn 0.220750 -0.082531 -0.971832
vn 0.193762 -0.048350 -0.979856
vn 0.187894 -0.056467 -0.980565
vn 0.149594 -0.025270 -0.988424
vn 0.145742 -0.029481 -0.988883
vn 0.092003 -0.002073 -0.995757
vn 0.100134 -0.006452 -0.994953
vn 0.032689 0.014910 -0.999354
vn 0.041260 0.015114 -0.999034
vn -0.042110 0.029656 -0.998673
vn -0.017636 0.028661 -0.999434
vn -0.118501 0.035658 -0.992313
vn -0.095938 0.038759 -0.994632
vn -0.211550 0.036821 -0.976673
vn -0.171686 0.038683 -0.984392
vn -0.307470 0.030205 -0.951078
vn -0.270954 0.033656 -0.962004
vn -0.401786 0.016674 -0.915582
vn -0.355679 0.018592 -0.934423
vn -0.463865 0.000000 -0.885906
vn -0.426393 0.000000 -0.904538
vn 0.324685 -0.129874 -0.936863
vn 0.275461 -0.105698 -0.955484
vn 0.412412 -0.173713 -0.894282
vn 0.410074 -0.167564 -0.896528
vn 0.390203 -0.151150 -0.908238
vn 0.365349 -0.132558 -0.921384
vn 0.332532 -0.109958 -0.936660
vn 0.299866 -0.088934 -0.949827
vn 0.257008 -0.065078 -0.964216
vn 0.210272 -0.042794 -0.976706
vn 0.157898 -0.021980 -0.987211
vn 0.091715 -0.001837 -0.995784
vn 0.025374 0.012814 -0.999596
vn -0.062804 0.025646 -0.997696
vn -0.143127 0.030348 -0.989239
vn -0.253516 0.031622 -0.966814
vn -0.348947 0.025429 -0.936797
vn -0.453990 0.014061 -0.890896
vn -0.505906 0.000000 -0.862589
vn 0.652031 -0.428314 0.625622
vn 0.671522 -0.440297 0.595984
vn 0.731669 -0.489957 0.473922
vn 0.720179 -0.482954 0.498093
vn 0.541510 -0.345041 0.766624
vn 0.559810 -0.358306 0.747148
vn 0.458850 -0.283357 0.842120
vn 0.485853 -0.298515 0.821484
vn 0.385345 -0.228942 0.893921
vn 0.400511 -0.236116 0.885347
vn 0.325636 -0.186353 0.926949
vn 0.340713 -0.196350 0.919435
vn 0.266838 -0.147281 0.952421
vn 0.278887 -0.151597 0.948283
vn 0.210400 -0.114163 0.970927
vn 0.216297 -0.118629 0.969094
vn 0.148549 -0.084354 0.985301
vn 0.153176 -0.084361 0.984591
vn 0.075583 -0.057897 0.995457
vn 0.065562 -0.052648 0.996459
vn -0.003996 -0.038582 0.999247
vn -0.021596 -0.031920 0.999257
vn -0.082799 -0.029552 0.996128
vn -0.111928 -0.025014 0.993402
vn -0.150820 -0.032649 0.988022
vn -0.179300 -0.026553 0.983436
vn -0.206291 -0.045343 0.977439
vn -0.243032 -0.043546 0.969040
vn -0.245851 -0.066787 0.967004
vn -0.272636 -0.064686 0.959940
vn 0.631814 -0.416040 0.654004
vn 0.708497 -0.475982 0.521032
vn 0.525192 -0.332986 0.783130
vn 0.441224 -0.274016 0.854539
vn 0.367786 -0.220360 0.903424
vn 0.313361 -0.178010 0.932801
vn 0.257130 -0.144088 0.955575
vn 0.206654 -0.110848 0.972115
vn 0.149342 -0.086433 0.985001
vn 0.085500 -0.062901 0.994351
vn 0.006819 -0.043285 0.999040
vn -0.057868 -0.033275 0.997770
vn -0.126711 -0.038025 0.991211
vn -0.175528 -0.046527 0.983374
vn -0.215803 -0.069486 0.973961
vn -0.645764 -0.428290 0.632105
vn -0.715190 -0.482957 0.505228
vn -0.726963 -0.490003 0.481062
vn -0.665597 -0.440291 0.602597
vn -0.533886 -0.345033 0.771957
vn -0.552350 -0.358259 0.752702
vn -0.450504 -0.283398 0.846600
vn -0.477658 -0.298526 0.826272
vn -0.376466 -0.228942 0.897697
vn -0.391725 -0.236147 0.889262
vn -0.316426 -0.186349 0.930134
vn -0.331590 -0.196352 0.922765
vn -0.257374 -0.147263 0.955025
vn -0.269440 -0.151596 0.951010
vn -0.200766 -0.114175 0.972963
vn -0.206664 -0.118632 0.971193
vn -0.138786 -0.084373 0.986722
vn -0.143391 -0.084397 0.986061
vn -0.065696 -0.057902 0.996158
vn -0.055665 -0.052683 0.997059
vn 0.013956 -0.038546 0.999159
vn 0.031521 -0.031950 0.998992
vn 0.092689 -0.029562 0.995256
vn 0.121813 -0.024988 0.992238
vn 0.160592 -0.032656 0.986481
vn 0.189029 -0.026614 0.981611
vn 0.215986 -0.045337 0.975343
vn 0.252622 -0.043566 0.966584
vn 0.255431 -0.066813 0.964516
vn 0.282154 -0.064713 0.957184
vn -0.625261 -0.416029 0.660279
vn -0.703303 -0.475986 0.528017
vn -0.517402 -0.332998 0.788294
vn -0.432723 -0.274035 0.858869
vn -0.358809 -0.220332 0.907034
vn -0.304087 -0.178003 0.935866
vn -0.247653 -0.144054 0.958080
vn -0.197026 -0.110870 0.974109
vn -0.139570 -0.086419 0.986434
vn -0.075597 -0.062871 0.995154
vn 0.003111 -0.043202 0.999062
vn 0.067746 -0.033319 0.997146
vn 0.136574 -0.037969 0.989902
vn 0.185251 -0.046500 0.981591
vn 0.225398 -0.069512 0.971784
vn -0.280487 -0.153637 -0.947482
vn -0.218651 -0.112461 -0.969301
vn -0.192371 -0.123880 -0.973472
vn -0.247174 -0.168275 -0.954248
vn -0.337929 -0.190739 -0.921641
vn -0.297776 -0.207015 -0.931920
vn -0.330179 -0.182304 -0.926146
vn -0.293234 -0.197391 -0.935441
vn -0.317241 -0.166624 -0.933592
vn -0.283125 -0.181801 -0.941694
vn -0.292214 -0.145608 -0.945203
vn -0.264502 -0.159648 -0.951079
vn -0.269042 -0.123000 -0.955242
vn -0.244072 -0.135649 -0.960223
vn -0.237973 -0.099090 -0.966204
vn -0.220531 -0.110948 -0.969049
vn -0.203847 -0.073688 -0.976226
vn -0.189062 -0.082492 -0.978494
vn -0.161827 -0.048343 -0.985634
vn -0.155937 -0.056458 -0.986152
vn -0.117393 -0.025262 -0.992764
vn -0.113551 -0.029445 -0.993096
vn -0.059538 -0.002063 -0.998224
vn -0.067762 -0.006470 -0.997681
vn -0.000188 0.014904 -0.999889
vn -0.008749 0.015075 -0.999848
vn 0.074533 0.029665 -0.996777
vn 0.050124 0.028679 -0.998331
vn 0.150701 0.035663 -0.987936
vn 0.128182 0.038736 -0.990994
vn 0.243184 0.036816 -0.969281
vn 0.203563 0.038635 -0.978299
vn 0.338191 0.030201 -0.940593
vn 0.302056 0.033615 -0.952697
vn 0.431296 0.016663 -0.902056
vn 0.385846 0.018562 -0.922377
vn 0.492402 0.000000 -0.870368
vn 0.455602 0.000000 -0.890184
vn -0.294052 -0.129870 -0.946925
vn -0.244246 -0.105679 -0.963938
vn -0.383151 -0.173698 -0.907207
vn -0.380706 -0.167556 -0.909389
vn -0.360455 -0.151153 -0.920448
vn -0.335208 -0.132565 -0.932771
vn -0.301920 -0.109965 -0.946970
vn -0.268821 -0.088926 -0.959076
vn -0.225543 -0.065113 -0.972055
vn -0.178431 -0.042788 -0.983022
vn -0.125704 -0.022004 -0.991824
vn -0.059330 -0.001850 -0.998237
vn 0.007119 0.012846 -0.999892
vn 0.095196 0.025653 -0.995128
vn 0.175182 0.030367 -0.984068
vn 0.284799 0.031655 -0.958064
vn 0.379220 0.025465 -0.924956
vn 0.482721 0.014072 -0.875661
vn 0.533691 0.000000 -0.845679
# 204 vertex normals

vt 0.526388 0.094763 0.000000
vt 0.515418 0.059803 0.000000
vt 0.505878 0.063953 0.000000
vt 0.517438 0.099183 0.000000
vt 0.535888 0.089463 0.000000
vt 0.525448 0.054733 0.000000
vt 0.545878 0.084083 0.000000
vt 0.536008 0.049593 0.000000
vt 0.557928 0.079163 0.000000
vt 0.548788 0.045023 0.000000
vt 0.570848 0.074623 0.000000
vt 0.562528 0.040853 0.000000
vt 0.585998 0.071503 0.000000
vt 0.578748 0.038223 0.000000
vt 0.601778 0.068933 0.000000
vt 0.595668 0.036173 0.000000
vt 0.619068 0.068323 0.000000
vt 0.614308 0.036173 0.000000
vt 0.636748 0.068463 0.000000
vt 0.633418 0.036923 0.000000
vt 0.655008 0.071043 0.000000
vt 0.653278 0.040193 0.000000
vt 0.673268 0.074513 0.000000
vt 0.673188 0.044353 0.000000
vt 0.691038 0.080903 0.000000
vt 0.692668 0.051443 0.000000
vt 0.708458 0.088333 0.000000
vt 0.711828 0.059593 0.000000
vt 0.724658 0.097933 0.000000
vt 0.729688 0.069873 0.000000
vt 0.740378 0.107923 0.000000
vt 0.747018 0.080543 0.000000
vt 0.754498 0.118203 0.000000
vt 0.762518 0.091383 0.000000
vt 0.768068 0.128273 0.000000
vt 0.777348 0.101973 0.000000
vt 0.780138 0.136703 0.000000
vt 0.790368 0.110783 0.000000
vt 0.531228 0.145223 0.000000
vt 0.522848 0.149903 0.000000
vt 0.540208 0.139693 0.000000
vt 0.549658 0.134083 0.000000
vt 0.560948 0.128853 0.000000
vt 0.573018 0.123963 0.000000
vt 0.587068 0.120373 0.000000
vt 0.601658 0.117313 0.000000
vt 0.617538 0.116113 0.000000
vt 0.633728 0.115623 0.000000
vt 0.650368 0.117533 0.000000
vt 0.666968 0.120313 0.000000
vt 0.683008 0.125983 0.000000
vt 0.698728 0.132693 0.000000
vt 0.713288 0.141623 0.000000
vt 0.727428 0.150963 0.000000
vt 0.740218 0.160693 0.000000
vt 0.752548 0.170273 0.000000
vt 0.763698 0.178343 0.000000
vt 0.755317 0.121670 0.000000
vt 0.738736 0.155864 0.000000
vt 0.747370 0.161035 0.000000
vt 0.764238 0.126725 0.000000
vt 0.744945 0.114573 0.000000
vt 0.728934 0.148636 0.000000
vt 0.733829 0.106881 0.000000
vt 0.718479 0.140813 0.000000
vt 0.720097 0.098344 0.000000
vt 0.705712 0.132132 0.000000
vt 0.705402 0.089860 0.000000
vt 0.692074 0.123486 0.000000
vt 0.687567 0.082491 0.000000
vt 0.675640 0.115947 0.000000
vt 0.668626 0.075843 0.000000
vt 0.658225 0.109104 0.000000
vt 0.647037 0.072054 0.000000
vt 0.638426 0.105091 0.000000
vt 0.624768 0.069451 0.000000
vt 0.618040 0.102255 0.000000
vt 0.601030 0.071100 0.000000
vt 0.596327 0.103660 0.000000
vt 0.576967 0.074412 0.000000
vt 0.574310 0.106719 0.000000
vt 0.552288 0.081427 0.000000
vt 0.551677 0.113481 0.000000
vt 0.527568 0.089273 0.000000
vt 0.528982 0.121082 0.000000
vt 0.500718 0.099608 0.000000
vt 0.504206 0.131178 0.000000
vt 0.771897 0.087485 0.000000
vt 0.781123 0.092427 0.000000
vt 0.760956 0.080500 0.000000
vt 0.749180 0.072939 0.000000
vt 0.734492 0.064556 0.000000
vt 0.718720 0.056222 0.000000
vt 0.699493 0.049035 0.000000
vt 0.679036 0.042584 0.000000
vt 0.655647 0.039017 0.000000
vt 0.631497 0.036636 0.000000
vt 0.605743 0.038542 0.000000
vt 0.579624 0.042105 0.000000
vt 0.552909 0.049374 0.000000
vt 0.526164 0.057464 0.000000
vt 0.497207 0.068054 0.000000
# 102 texture coords

o Female_Body_Eyelashes
g Female_Body_Eyelashes
usemtl PhysicalMaterial
s off
f 1/1/1 2/2/2 3/3/3 4/4/4 
f 5/5/5 6/6/6 2/2/2 1/1/1 
f 7/7/7 8/8/8 6/6/6 5/5/5 
f 9/9/9 10/10/10 8/8/8 7/7/7 
f 11/11/11 12/12/12 10/10/10 9/9/9 
f 13/13/13 14/14/14 12/12/12 11/11/11 
f 15/15/15 16/16/16 14/14/14 13/13/13 
f 17/17/17 18/18/18 16/16/16 15/15/15 
f 19/19/19 20/20/20 18/18/18 17/17/17 
f 21/21/21 22/22/22 20/20/20 19/19/19 
f 23/23/23 24/24/24 22/22/22 21/21/21 
f 25/25/25 26/26/26 24/24/24 23/23/23 
f 27/27/27 28/28/28 26/26/26 25/25/25 
f 29/29/29 30/30/30 28/28/28 27/27/27 
f 31/31/31 32/32/32 30/30/30 29/29/29 
f 33/33/33 34/34/34 32/32/32 31/31/31 
f 35/35/35 36/36/36 34/34/34 33/33/33 
f 37/37/37 38/38/38 36/36/36 35/35/35 
f 39/39/39 1/1/1 4/4/4 40/40/40 
f 41/41/41 5/5/5 1/1/1 39/39/39 
f 42/42/42 7/7/7 5/5/5 41/41/41 
f 43/43/43 9/9/9 7/7/7 42/42/42 
f 44/44/44 11/11/11 9/9/9 43/43/43 
f 45/45/45 13/13/13 11/11/11 44/44/44 
f 46/46/46 15/15/15 13/13/13 45/45/45 
f 47/47/47 17/17/17 15/15/15 46/46/46 
f 48/48/48 19/19/19 17/17/17 47/47/47 
f 49/49/49 21/21/21 19/19/19 48/48/48 
f 50/50/50 23/23/23 21/21/21 49/49/49 
f 51/51/51 25/25/25 23/23/23 50/50/50 
f 52/52/52 27/27/27 25/25/25 51/51/51 
f 53/53/53 29/29/29 27/27/27 52/52/52 
f 54/54/54 31/31/31 29/29/29 53/53/53 
f 55/55/55 33/33/33 31/31/31 54/54/54 
f 56/56/56 35/35/35 33/33/33 55/55/55 
f 57/57/57 37/37/37 35/35/35 56/56/56 
f 58/58/58 59/59/59 60/60/60 61/61/61 
f 62/62/62 63/63/63 59/59/59 58/58/58 
f 64/64/64 65/65/65 63/63/63 62/62/62 
f 66/66/66 67/67/67 65/65/65 64/64/64 
f 68/68/68 69/69/69 67/67/67 66/66/66 
f 70/70/70 71/71/71 69/69/69 68/68/68 
f 72/72/72 73/73/73 71/71/71 70/70/70 
f 74/74/74 75/75/75 73/73/73 72/72/72 
f 76/76/76 77/77/77 75/75/75 74/74/74 
f 78/78/78 79/79/79 77/77/77 76/76/76 
f 80/80/80 81/81/81 79/79/79 78/78/78 
f 82/82/82 83/83/83 81/81/81 80/80/80 
f 84/84/84 85/85/85 83/83/83 82/82/82 
f 86/86/86 87/87/87 85/85/85 84/84/84 
f 88/88/88 58/58/58 61/61/61 89/89/89 
f 90/90/90 62/62/62 58/58/58 88/88/88 
f 91/91/91 64/64/64 62/62/62 90/90/90 
f 92/92/92 66/66/66 64/64/64 91/91/91 
f 93/93/93 68/68/68 66/66/66 92/92/92 
f 94/94/94 70/70/70 68/68/68 93/93/93 
f 95/95/95 72/72/72 70/70/70 94/94/94 
f 96/96/96 74/74/74 72/72/72 95/95/95 
f 97/97/97 76/76/76 74/74/74 96/96/96 
f 98/98/98 78/78/78 76/76/76 97/97/97 
f 99/99/99 80/80/80 78/78/78 98/98/98 
f 100/100/100 82/82/82 80/80/80 99/99/99 
f 101/101/101 84/84/84 82/82/82 100/100/100 
f 102/102/102 86/86/86 84/84/84 101/101/101 
f 103/58/103 104/61/104 105/60/105 106/59/106 
f 107/62/107 103/58/103 106/59/106 108/63/108 
f 109/64/109 107/62/107 108/63/108 110/65/110 
f 111/66/111 109/64/109 110/65/110 112/67/112 
f 113/68/113 111/66/111 112/67/112 114/69/114 
f 115/70/115 113/68/113 114/69/114 116/71/116 
f 117/72/117 115/70/115 116/71/116 118/73/118 
f 119/74/119 117/72/117 118/73/118 120/75/120 
f 121/76/121 119/74/119 120/75/120 122/77/122 
f 123/78/123 121/76/121 122/77/122 124/79/124 
f 125/80/125 123/78/123 124/79/124 126/81/126 
f 127/82/127 125/80/125 126/81/126 128/83/128 
f 129/84/129 127/82/127 128/83/128 130/85/130 
f 131/86/131 129/84/129 130/85/130 132/87/132 
f 133/88/133 134/89/134 104/61/104 103/58/103 
f 135/90/135 133/88/133 103/58/103 107/62/107 
f 136/91/136 135/90/135 107/62/107 109/64/109 
f 137/92/137 136/91/136 109/64/109 111/66/111 
f 138/93/138 137/92/137 111/66/111 113/68/113 
f 139/94/139 138/93/138 113/68/113 115/70/115 
f 140/95/140 139/94/139 115/70/115 117/72/117 
f 141/96/141 140/95/140 117/72/117 119/74/119 
f 142/97/142 141/96/141 119/74/119 121/76/121 
f 143/98/143 142/97/142 121/76/121 123/78/123 
f 144/99/144 143/98/143 123/78/123 125/80/125 
f 145/100/145 144/99/144 125/80/125 127/82/127 
f 146/101/146 145/100/145 127/82/127 129/84/129 
f 147/102/147 146/101/146 129/84/129 131/86/131 
f 148/1/148 149/4/149 150/3/150 151/2/151 
f 152/5/152 148/1/148 151/2/151 153/6/153 
f 154/7/154 152/5/152 153/6/153 155/8/155 
f 156/9/156 154/7/154 155/8/155 157/10/157 
f 158/11/158 156/9/156 157/10/157 159/12/159 
f 160/13/160 158/11/158 159/12/159 161/14/161 
f 162/15/162 160/13/160 161/14/161 163/16/163 
f 164/17/164 162/15/162 163/16/163 165/18/165 
f 166/19/166 164/17/164 165/18/165 167/20/167 
f 168/21/168 166/19/166 167/20/167 169/22/169 
f 170/23/170 168/21/168 169/22/169 171/24/171 
f 172/25/172 170/23/170 171/24/171 173/26/173 
f 174/27/174 172/25/172 173/26/173 175/28/175 
f 176/29/176 174/27/174 175/28/175 177/30/177 
f 178/31/178 176/29/176 177/30/177 179/32/179 
f 180/33/180 178/31/178 179/32/179 181/34/181 
f 182/35/182 180/33/180 181/34/181 183/36/183 
f 184/37/184 182/35/182 183/36/183 185/38/185 
f 186/39/186 187/40/187 149/4/149 148/1/148 
f 188/41/188 186/39/186 148/1/148 152/5/152 
f 189/42/189 188/41/188 152/5/152 154/7/154 
f 190/43/190 189/42/189 154/7/154 156/9/156 
f 191/44/191 190/43/190 156/9/156 158/11/158 
f 192/45/192 191/44/191 158/11/158 160/13/160 
f 193/46/193 192/45/192 160/13/160 162/15/162 
f 194/47/194 193/46/193 162/15/162 164/17/164 
f 195/48/195 194/47/194 164/17/164 166/19/166 
f 196/49/196 195/48/195 166/19/166 168/21/168 
f 197/50/197 196/49/196 168/21/168 170/23/170 
f 198/51/198 197/50/197 170/23/170 172/25/172 
f 199/52/199 198/51/198 172/25/172 174/27/174 
f 200/53/200 199/52/199 174/27/174 176/29/176 
f 201/54/201 200/53/200 176/29/176 178/31/178 
f 202/55/202 201/54/201 178/31/178 180/33/180 
f 203/56/203 202/55/202 180/33/180 182/35/182 
f 204/57/204 203/56/203 182/35/182 184/37/184 
# 128 polygons

